# xmcd
#
# Track frame offsets: 
#        150
#        16681
#        33183
#        52389
#        69500
#        85968
#        102529
#        119245
#        135228
#        152664
#
# Disc length: 2260 seconds
#
# Revision: 0
# Processed by: cddbd v1.5.2PL0 Copyright (c) Steve Scherf et al.
# Submitted via: ExactAudioCopy v0.99pb4
#
DISCID=8408d20a
DTITLE=Vernon Wilson - Let The Music Play
DYEAR=1900
DGENRE=R&B
TTITLE0=Don't Stop It
TTITLE1=I Want It
TTITLE2=Destiny
TTITLE3=Let The Music Play
TTITLE4=Break My Heart
TTITLE5=Ignite My Fire
TTITLE6=I'm Yours
TTITLE7=R.U.S.M. (are you still mine)
TTITLE8=Tell Me
TTITLE9=I'm Yours (Inst)
EXTD=
EXTT0=
EXTT1=
EXTT2=
EXTT3=
EXTT4=
EXTT5=
EXTT6=
EXTT7=
EXTT8=
EXTT9=
PLAYORDER=
